<?xml version="1.0" encoding="UTF-8"?>
<svg version="1.1" xmlns="http://www.w3.org/2000/svg" width="600" height="600">
<path d="M0 0 C0.99 0 1.98 0 3 0 C4.28412094 3.85236282 4.14465935 7.47460163 4.12109375 11.48828125 C4.11822861 12.3634993 4.11536346 13.23871735 4.1124115 14.14045715 C4.03855834 24.98215967 3.62305863 35.81352744 3.20043945 46.64624023 C3.0622839 50.19304792 2.93011047 53.74004127 2.79882812 57.28710938 C2.33798553 69.53450562 1.79914581 81.76973492 1 94 C2.35218628 94.42297363 2.35218628 94.42297363 3.73168945 94.85449219 C8.2527382 96.43907131 12.09996814 98.77929996 16.1875 101.25 C17.06027588 101.77722656 17.93305176 102.30445313 18.83227539 102.84765625 C33.41662284 111.80891731 46.78488366 122.0188257 59 134 C59.89074219 134.85207031 60.78148437 135.70414063 61.69921875 136.58203125 C103.88880705 177.60865999 122.61200765 236.05306048 124.28515625 293.75708008 C124.50903635 311.09779345 123.91005807 334.17988386 116 350 C116.598125 350.103125 117.19625 350.20625 117.8125 350.3125 C120.28243264 351.08876455 121.32251235 352.07088921 123 354 C119.0918073 359.28387654 114.84102648 362.36561642 109.25 365.75 C107.98482544 366.53250122 107.98482544 366.53250122 106.6940918 367.33081055 C100.76760412 370.97826453 94.775446 374.51157127 88.75756836 378.00561523 C81.47812605 382.25327608 74.36236129 386.75635044 67.23583984 391.25439453 C61.3031242 394.98403943 55.31715045 398.58185668 49.24145508 402.07324219 C39.74953925 407.53780879 31.23844303 413.42646818 22.86669922 420.46777344 C19.3925995 423.31938864 15.78783878 425.99832822 12.1875 428.6875 C11.15423584 429.46395874 11.15423584 429.46395874 10.10009766 430.25610352 C5.26483136 433.86758432 5.26483136 433.86758432 3 435 C2.64628023 455.07605349 6.12842884 474.19994379 11.30664062 493.50073242 C11.48302567 494.16293793 11.65941071 494.82514343 11.84114075 495.50741577 C12.32428637 497.3094757 12.81838538 499.1085888 13.31323242 500.9074707 C13.94069472 503.73294705 14.14162118 506.12149065 14 509 C6.7264212 508.96632602 2.21245628 507.0945274 -3 502 C-6.57845224 497.69758343 -8.10496777 493.73821941 -8.20532227 488.16137695 C-8.22526749 487.1805867 -8.24521271 486.19979645 -8.26576233 485.18928528 C-8.29083107 483.60478828 -8.29083107 483.60478828 -8.31640625 481.98828125 C-8.3475779 480.36323921 -8.3475779 480.36323921 -8.37937927 478.70536804 C-8.44481797 475.24114384 -8.50373353 471.7768432 -8.5625 468.3125 C-8.60569061 465.96548685 -8.64930507 463.61848147 -8.69335938 461.27148438 C-8.80049357 455.51440396 -8.90227064 449.75724733 -9 444 C-10.15338867 444.46297485 -10.15338867 444.46297485 -11.33007812 444.93530273 C-14.04055854 446.01617372 -16.76274238 447.05140625 -19.5 448.0625 C-20.87671875 448.57490234 -20.87671875 448.57490234 -22.28125 449.09765625 C-31.27504454 452.08266565 -39.51718528 451.28070029 -48.6328125 449.34375 C-49.46468079 449.16705276 -50.29654907 448.99035553 -51.15362549 448.80830383 C-60.50228526 446.75745215 -69.61174003 444.01333639 -78.75 441.1875 C-80.59492386 440.62392903 -82.43997937 440.06078888 -84.28515625 439.49804688 C-94.40576168 436.39994867 -104.49853542 433.21713852 -114.578125 429.98828125 C-115.61910339 429.65491257 -116.66008179 429.32154388 -117.73260498 428.97807312 C-122.75824708 427.36655013 -127.78112123 425.74707988 -132.79980469 424.11401367 C-172.99894443 409.99745092 -172.99894443 409.99745092 -214 414 C-217.44054546 415.92125509 -219.54996656 417.88815267 -221.0625 421.625 C-220.96924917 426.66054506 -219.50560996 431.21947573 -218 436 C-221.37779777 438.25186518 -222.99150178 438.23652 -226.9296875 437.58984375 C-230.64391687 436.53163878 -232.51357609 434.9109353 -235 432 C-236.41991868 427.66845031 -236.40064821 424.17837708 -234.9375 419.875 C-229.72863891 412.14572225 -223.31310339 406.74009625 -216 401 C-215.20263428 400.37351562 -215.20263428 400.37351562 -214.38916016 399.734375 C-212.11149487 397.94511768 -209.83290655 396.15706138 -207.55151367 394.37255859 C-202.93315703 390.75372974 -198.36512938 387.07606617 -193.8125 383.375 C-193.13517822 382.82755127 -192.45785645 382.28010254 -191.76000977 381.71606445 C-188.77966669 379.30008962 -185.82660383 376.87227063 -182.96484375 374.31640625 C-169.18611321 362.2426697 -151.11706595 361.13721324 -133.46044922 361.82568359 C-126.88686013 362.29140523 -120.43265611 363.61627884 -114 365 C-114.25406892 349.38630999 -118.73436671 338.68951192 -129.4375 327.4375 C-130.283125 326.633125 -131.12875 325.82875 -132 325 C-132.50273437 324.4534375 -133.00546875 323.906875 -133.5234375 323.34375 C-143.67356956 312.52876213 -156.0260237 304.71814315 -168.875 297.5 C-169.92034912 296.9126709 -170.96569824 296.3253418 -172.04272461 295.72021484 C-184.3479771 288.96028975 -194.77373428 284.94686364 -209 286 C-211.76819039 286.82188531 -213.9263278 287.9263278 -216 290 C-215.77869107 292.30793594 -215.41524614 294.58042943 -215.05859375 296.87109375 C-215.03925781 297.57363281 -215.01992187 298.27617187 -215 299 C-215.66 299.66 -216.32 300.32 -217 301 C-220.95778641 300.85341532 -223.27070008 300.5949552 -226.375 298.0625 C-228.23474396 295.70205575 -228.9363585 294.33411787 -229.5 291.375 C-228.18407342 282.4924956 -217.14683379 275.3904586 -210.73486328 269.58203125 C-209.01740142 268.01586845 -207.31678784 266.4334324 -205.62109375 264.84375 C-202.93558565 262.32623404 -200.22905998 259.83405525 -197.50048828 257.36328125 C-196.08318545 256.07557884 -194.67979728 254.77260924 -193.27734375 253.46875 C-186.51170231 247.52920698 -186.51170231 247.52920698 -181.5 247.1875 C-166.13607091 248.92127672 -151.75632492 264.0909646 -142.42285156 275.49682617 C-139.27534559 279.48329503 -136.50876372 283.58803622 -134 288 C-134.97725866 282.08966439 -135.96314373 276.18145594 -137 270.28125 C-139.71669322 254.69432282 -141.67200359 239.2816262 -142.421875 223.4765625 C-142.49842609 221.94319117 -142.57508715 220.40982532 -142.65185547 218.87646484 C-142.80299504 215.84338476 -142.92853941 212.81066385 -143.03955078 209.77587891 C-143.36330115 202.34934989 -143.87879875 196.4107575 -148 190 C-148.5775 189.01 -149.155 188.02 -149.75 187 C-150.1625 186.34 -150.575 185.68 -151 185 C-148.05552133 181.82673918 -145.04499199 179.62363552 -141.34375 177.390625 C-140.23773438 176.71773437 -139.13171875 176.04484375 -137.9921875 175.3515625 C-136.82835705 174.65065621 -135.66429374 173.95013644 -134.5 173.25 C-117.30041796 162.85117224 -102.01110928 152.08592938 -87.6875 138 C-87.02258545 137.35281006 -86.3576709 136.70562012 -85.67260742 136.03881836 C-85.06263916 135.4278833 -84.4526709 134.81694824 -83.82421875 134.1875 C-83.27854248 133.64480469 -82.73286621 133.10210937 -82.1706543 132.54296875 C-80.69778607 130.92446962 -80.69778607 130.92446962 -81 128 C-93.96124979 123.61900768 -106.94629712 120.17923879 -120.375 117.625 C-121.3683989 117.4347525 -121.3683989 117.4347525 -122.38186646 117.24066162 C-134.38073085 114.96060387 -145.81142129 113.79268395 -158.0090332 113.75976562 C-160.16592542 113.75009671 -162.32184718 113.71900218 -164.47851562 113.6875 C-179.1349511 113.575602 -193.96412015 115.29873757 -205.25 125.5625 C-215.51183243 136.61210946 -218.22208316 150.57362762 -218.375 165.125 C-218.39602783 166.50244385 -218.39602783 166.50244385 -218.41748047 167.90771484 C-218.35374463 177.02847721 -216.61024665 186.2870034 -210 193 C-202.71476151 198.87821818 -195.17538626 200.4512485 -186 200 C-183.15284501 199.56645435 -183.15284501 199.56645435 -181 199 C-179.00881759 194.02988327 -178.75154305 189.87666865 -178.875 184.625 C-178.88402344 183.88894531 -178.89304687 183.15289062 -178.90234375 182.39453125 C-178.92569856 180.5962112 -178.96156164 178.79806089 -179 177 C-175.58879049 176.15587019 -174.28095596 175.89885585 -170.875 177.125 C-167.57578721 179.27666052 -166.40785697 180.32392902 -165 184 C-164.03202163 190.23808283 -164.67707543 194.99187448 -168.4140625 200.1328125 C-175.32092323 208.26453523 -186.24858847 215.26724824 -197 217 C-211.72898019 218.02214766 -224.45145489 215.94232141 -236 206 C-243.76458533 198.81775857 -247.52224817 190.00963747 -248.23828125 179.50390625 C-248.65183445 157.54205477 -239.60038676 140.73835808 -225 125 C-223.96359375 123.87658203 -223.96359375 123.87658203 -222.90625 122.73046875 C-217.69438877 117.31568669 -211.87895961 112.66523892 -206 108 C-204.9386676 107.14730277 -203.87747336 106.29443357 -202.81640625 105.44140625 C-194.89645446 99.11217927 -186.74918301 93.13534849 -178.50390625 87.23828125 C-175.51152837 85.09625303 -172.54154615 82.92820728 -169.58984375 80.73046875 C-168.89947021 80.21742187 -168.20909668 79.704375 -167.49780273 79.17578125 C-166.19371653 78.20429041 -164.89231278 77.22918537 -163.59399414 76.25 C-159.22101178 73 -159.22101178 73 -157 73 C-157 72.34 -157 71.68 -157 71 C-155.5893063 70.02594959 -154.17106575 69.06082084 -152.71484375 68.15625 C-150.95019253 66.96641683 -149.49007202 65.63925566 -147.9375 64.1875 C-145 62 -145 62 -142.375 62 C-140 63 -140 63 -138.375 64.58203125 C-134.85425683 66.6840539 -131.55422646 66.05739166 -127.625 65.6875 C-125.98847228 65.56767433 -124.35174767 65.45050943 -122.71484375 65.3359375 C-121.90901855 65.27631836 -121.10319336 65.21669922 -120.27294922 65.15527344 C-83.46436487 62.64074501 -45.60341849 72.91397508 -12 87 C-12.02094727 85.74155273 -12.04189453 84.48310547 -12.06347656 83.18652344 C-12.13712713 78.41532252 -12.18224337 73.64416904 -12.21972656 68.87255859 C-12.23956254 66.82657359 -12.26663997 64.78064304 -12.30175781 62.73486328 C-12.65817844 41.40204015 -10.11834077 19.18085468 0 0 Z M-77.203125 142.8984375 C-93.15226014 160.44248615 -91.78385228 186.89536558 -91 209 C-90.48904573 217.07406486 -89.32957612 225.02497172 -88 233 C-87.81195801 234.15628906 -87.62391602 235.31257813 -87.43017578 236.50390625 C-84.25068394 255.58591615 -79.3548555 273.80097156 -73.72486877 292.27833557 C-63.47540436 326.00795755 -63.47540436 326.00795755 -72.54296875 344.07421875 C-77.92025731 353.68443011 -84.51352834 361.88192659 -92.53125 369.40625 C-94.22589367 370.88389906 -94.22589367 370.88389906 -94 373 C-75.46349505 379.94564557 -56.82151675 386.49107733 -38 392.625 C-37.06844086 392.93004456 -36.13688171 393.23508911 -35.17709351 393.54937744 C-32.49473779 394.42620411 -29.81034147 395.296428 -27.125 396.1640625 C-25.94077202 396.55084167 -25.94077202 396.55084167 -24.73262024 396.94543457 C-19.54302678 398.60803213 -14.33796271 399.9058165 -9 401 C-8.87614916 395.82227254 -8.78554429 390.64541212 -8.7253418 385.46655273 C-8.70023939 383.70598324 -8.66614972 381.94551753 -8.62280273 380.18530273 C-8.56195885 377.65061821 -8.53374887 375.11731425 -8.51171875 372.58203125 C-8.48591232 371.79850784 -8.4601059 371.01498444 -8.43351746 370.2077179 C-8.43133942 365.93768665 -8.58926605 364.48857879 -11.44750977 361.08862305 C-12.71099243 360.05475464 -12.71099243 360.05475464 -14 359 C-16.12709946 355.79683846 -15.99653079 353.76519749 -15.75 350 C-16.03175051 345.86213462 -16.96908077 343.715343 -19.89453125 340.89453125 C-22.92465739 338.25338525 -26.09922213 335.80093678 -29.28955078 333.35742188 C-31.52914632 331.58006658 -33.51680802 329.61914353 -35.5 327.5625 C-37.61825751 325.36762466 -39.71710777 323.37074704 -42.125 321.5 C-45.61031657 318.46928994 -48.95941741 315.19232532 -51 311 C-51.11480165 307.21154556 -49.60310763 305.34027353 -47.12109375 302.6953125 C-45.90406021 301.49413444 -44.67557704 300.30447642 -43.4375 299.125 C-42.79780273 298.50149658 -42.15810547 297.87799316 -41.49902344 297.2355957 C-37.73983827 293.59418308 -33.9231624 290.03351968 -29.93359375 286.64453125 C-24.07853199 281.66477165 -18.35183247 276.51907723 -13 271 C-12.34 270.34 -11.68 269.68 -11 269 C-8.69572041 258.29624963 -10.73048107 249.0691753 -16.17578125 239.734375 C-24.78884708 226.82399795 -38.55400757 216.14640587 -54 213 C-56.80744875 212.71258294 -59.15102388 212.75856135 -62 213 C-64.30143236 216.45214853 -64.13833854 217.23479324 -63.625 221.1875 C-63.51414062 222.08855469 -63.40328125 222.98960937 -63.2890625 223.91796875 C-63.19367188 224.60503906 -63.09828125 225.29210937 -63 226 C-66.90559061 224.73332196 -69.06060687 223.68484694 -71 220 C-72.57391651 214.72275053 -72.29682605 211.88080497 -69.75 207 C-62.69402016 195.20174534 -54.74564726 182.74564726 -45 173 C-39.47405777 171.89481155 -35.90366045 174.48051046 -31.40625 177.33203125 C-29.33865409 178.76525114 -27.40987937 180.24130416 -25.5 181.875 C-23.29287043 184.21588281 -23.29287043 184.21588281 -21 184 C-20.74089844 184.57621094 -20.48179687 185.15242188 -20.21484375 185.74609375 C-18.90400618 188.17809787 -17.40402166 190.00712421 -15.5625 192.0625 C-14.96566406 192.73410156 -14.36882812 193.40570313 -13.75390625 194.09765625 C-12.20677083 195.77572964 -10.61891972 197.39188255 -9 199 C-8.67628014 194.03846636 -8.4418047 189.08316886 -8.28588867 184.11352539 C-8.22087568 182.42786593 -8.13241426 180.74292965 -8.01928711 179.05981445 C-7.16307836 168.82056416 -7.16307836 168.82056416 -11.5715332 160.046875 C-14.81285607 157.5523162 -18.33470812 155.79637469 -22 154 C-23.84379531 152.9207854 -25.68398953 151.83538092 -27.51953125 150.7421875 C-29.27861556 149.77685026 -31.04300333 148.82111581 -32.8125 147.875 C-33.74811768 147.37000977 -34.68373535 146.86501953 -35.64770508 146.34472656 C-41.40567669 143.27577439 -47.2164494 140.38135765 -53.1875 137.75 C-53.84016846 137.46237793 -54.49283691 137.17475586 -55.1652832 136.87841797 C-63.42363267 133.379588 -70.64383294 137.24628157 -77.203125 142.8984375 Z M0 171 C-0.83177731 173.90564755 -1.12629762 176.48708727 -1.12939453 179.50561523 C-1.13254669 180.39010849 -1.13569885 181.27460175 -1.13894653 182.18589783 C-1.1369223 183.13388748 -1.13489807 184.08187714 -1.1328125 185.05859375 C-1.13376923 186.03989761 -1.13472595 187.02120148 -1.13571167 188.03224182 C-1.13639162 190.10588648 -1.1345502 192.17953327 -1.13037109 194.25317383 C-1.125026 197.42208661 -1.1303194 200.59085728 -1.13671875 203.75976562 C-1.13605782 205.77604198 -1.13477636 207.79231824 -1.1328125 209.80859375 C-1.13483673 210.75455917 -1.13686096 211.7005246 -1.13894653 212.67515564 C-1.12376801 216.94941356 -0.92205211 220.8146813 0 225 C0.19368709 229.19601111 0.18580939 233.39012842 0.18530273 237.59033203 C0.18747087 239.59802335 0.2059294 241.60567566 0.22460938 243.61328125 C0.23496166 250.54931036 -0.22946801 256.92553044 -1.6081543 263.71557617 C-2.14145253 266.824655 -2.04559247 269.01570482 -1 272 C0.60896471 274.14430039 2.13346042 275.92390159 4 277.8125 C4.51892822 278.35729004 5.03785645 278.90208008 5.57250977 279.46337891 C8.79618768 282.82139624 12.09878968 286.09972207 15.40234375 289.37890625 C16.15322266 290.12487061 16.90410156 290.87083496 17.67773438 291.6394043 C19.15320219 293.09909085 20.6347318 294.55268251 22.12304688 295.99926758 C26.25507751 300.05944101 30.1335739 303.93737686 33 309 C32.33528959 313.39230214 29.48633925 315.85998705 26.375 318.875 C25.01568359 320.19564453 25.01568359 320.19564453 23.62890625 321.54296875 C21.55831029 323.47819142 19.47032952 325.35215929 17.3125 327.1875 C16.37857422 328.02667969 16.37857422 328.02667969 15.42578125 328.8828125 C14.04282565 330.08983655 12.6419213 331.2784519 11.19287109 332.40527344 C2.48827539 339.08161466 2.48827539 339.08161466 -2.69140625 348.43603516 C-3.36062896 353.97088818 -2.8592282 359.41741166 -2.28466797 364.94238281 C-1.88081453 369.28017048 -1.78256546 373.61396896 -1.65820312 377.96728516 C-1.41381608 386.35001031 -0.93467469 394.66476612 0 403 C17.24608565 403.70766613 33.91997014 400.98048269 47 389 C58.55446298 377.74810888 62.22584394 366.45268199 65 351 C65.22816406 349.7521875 65.45632813 348.504375 65.69140625 347.21875 C72.60919061 300.39067124 62.86850817 247.55341144 35.0625 208.625 C30.86208646 203.27901914 26.47397407 198.11795519 22 193 C21.41734375 192.30519531 20.8346875 191.61039063 20.234375 190.89453125 C16.26906442 186.1982417 11.95711349 181.85491123 7.625 177.5 C6.99295654 176.86328369 6.36091309 176.22656738 5.7097168 175.57055664 C5.11715088 174.98008545 4.52458496 174.38961426 3.9140625 173.78125 C3.3773291 173.24564453 2.8405957 172.71003906 2.28759766 172.15820312 C1.16473076 170.88853963 1.16473076 170.88853963 0 171 Z M-133 289 C-132 291 -132 291 -132 291 Z " fill="#fff" transform="translate(359,44)"/>
<path d="M0 0 C-3.89052096 8.10668024 -10.76233478 13.85129253 -17.3125 19.8125 C-17.86228516 20.31458984 -18.41207031 20.81667969 -18.97851562 21.33398438 C-20.31805239 22.55703968 -21.65888992 23.77867008 -23 25 C-23 22 -23 22 -21.34765625 20.0546875 C-20.21650391 18.97574219 -20.21650391 18.97574219 -19.0625 17.875 C-18.25039063 17.08609375 -17.43828125 16.2971875 -16.6015625 15.484375 C-14.8671875 13.828125 -13.1328125 12.171875 -11.3984375 10.515625 C-10.18027344 9.33226562 -10.18027344 9.33226562 -8.9375 8.125 C-8.18339844 7.40570313 -7.42929687 6.68640625 -6.65234375 5.9453125 C-4.67630909 4.04430842 -4.67630909 4.04430842 -5 1 C-17.96124979 -3.38099232 -30.94629712 -6.82076121 -44.375 -9.375 C-45.03726593 -9.50183167 -45.69953186 -9.62866333 -46.38186646 -9.75933838 C-58.38073085 -12.03939613 -69.81142129 -13.20731605 -82.0090332 -13.24023438 C-84.16592542 -13.24990329 -86.32184718 -13.28099782 -88.47851562 -13.3125 C-103.23636899 -13.4251723 -118.21590153 -11.73024615 -129.375 -1.125 C-132.60964821 2.31918007 -134.89137548 5.78275096 -137 10 C-137.66 9.67 -138.32 9.34 -139 9 C-138.44572949 5.12010641 -136.79838685 3.6471227 -134 1 C-133.07900721 -0.142359 -132.16271848 -1.28851924 -131.25 -2.4375 C-103.92573667 -34.01220429 -32.17853567 -11.58920442 0 0 Z " fill="#fff" transform="translate(283,171)"/>
<path d="M0 0 C0.66 0 1.32 0 2 0 C0.57027392 4.55211638 -1.7286193 7.07322601 -5.125 10.375 C-5.62217529 10.86121826 -6.11935059 11.34743652 -6.6315918 11.84838867 C-9.28661121 14.42457581 -11.9977222 16.91291719 -14.8125 19.3125 C-15.68165039 20.10382324 -15.68165039 20.10382324 -16.56835938 20.91113281 C-19 23 -19 23 -20.63691711 24.15357971 C-26.50938696 28.29308699 -31.95445845 32.78402647 -33.74465942 40.00271606 C-34.7553493 48.4480278 -34.2767603 56.90229762 -33.875 65.375 C-33.80466763 67.96076813 -33.74080817 70.54672086 -33.68359375 73.1328125 C-33.53039154 79.42594751 -33.29710473 85.71210132 -33 92 C-33.33 92 -33.66 92 -34 92 C-34.31226871 85.15020686 -34.61433634 78.30001754 -34.90942383 71.44946289 C-35.01093283 69.12058403 -35.11474906 66.79180451 -35.22094727 64.46313477 C-35.37347038 61.10977454 -35.51760518 57.75614089 -35.66015625 54.40234375 C-35.70906509 53.36665756 -35.75797394 52.33097137 -35.80836487 51.26390076 C-36.38616927 37.14196075 -36.38616927 37.14196075 -33 32 C-31.37109375 30.39453125 -31.37109375 30.39453125 -29.4375 28.8125 C-26.3054041 26.16749316 -23.37403913 23.42384916 -20.5 20.5 C-17.10430261 17.05762636 -13.59056192 13.84990193 -9.92578125 10.69921875 C-4.25630697 5.92373102 -4.25630697 5.92373102 0 0 Z " fill="#1D245E" transform="translate(391,353)"/>
<path d="M0 0 C0 0.99 0 1.98 0 3 C-2.35302114 4.98451206 -4.68801844 6.77970248 -7.1875 8.5625 C-8.65295742 9.63197212 -10.11779167 10.70229862 -11.58203125 11.7734375 C-12.32146973 12.3106543 -13.0609082 12.84787109 -13.82275391 13.40136719 C-17.05190802 15.77235857 -20.21462054 18.22599381 -23.375 20.6875 C-28.77232143 24.88616071 -28.77232143 24.88616071 -31 26 C-31.1903132 34.05759889 -30.6451342 41.87707903 -29.6875 49.875 C-29.55432373 51.01815674 -29.42114746 52.16131348 -29.28393555 53.33911133 C-28.44505923 60.22851209 -27.3190488 66.83954783 -25.5625 73.5546875 C-24.81440129 76.80683884 -24.76857518 79.68291084 -25 83 C-27.92893957 78.60659065 -28.47799559 73.94642409 -29.5 68.8125 C-29.83100708 67.1577063 -29.83100708 67.1577063 -30.16870117 65.46948242 C-32.34612285 54.04876379 -33.39200568 42.6005316 -34 31 C-34.09410156 29.85660156 -34.18820312 28.71320313 -34.28515625 27.53515625 C-34 25 -34 25 -32.3203125 23.1015625 C-31.23363281 22.37066406 -31.23363281 22.37066406 -30.125 21.625 C-29.04605469 20.87089844 -29.04605469 20.87089844 -27.9453125 20.1015625 C-26 19 -26 19 -24 19 C-23.67 18.01 -23.34 17.02 -23 16 C-21.36021682 14.95650161 -19.68535024 13.96817992 -18 13 C-15.89967275 11.43078999 -13.83092587 9.82697999 -11.76953125 8.20703125 C-10 7 -10 7 -8 7 C-8 6.34 -8 5.68 -8 5 C-6.25 3.7109375 -6.25 3.7109375 -4 2.375 C-3.2575 1.92898438 -2.515 1.48296875 -1.75 1.0234375 C-1.1725 0.68570312 -0.595 0.34796875 0 0 Z " fill="#1D245E" transform="translate(393,453)"/>
<path d="M0 0 C13.0249931 8.85699531 30.91031043 24.73093128 36 40 C36.99 40.495 36.99 40.495 38 41 C37.01 41 36.02 41 35 41 C33.5625 39.48828125 33.5625 39.48828125 32 37.3125 C22.9463426 25.22209502 12.81075736 14.52539727 2 4 C0.84919074 7.45242778 0.80664232 10.26526389 0.71875 13.90625 C0.70034058 14.58619019 0.68193115 15.26613037 0.66296387 15.9666748 C0.60431608 18.14436309 0.55157851 20.3221336 0.5 22.5 C0.27782833 31.69832252 0.00847356 40.84540994 -1 50 C-1.33 50 -1.66 50 -2 50 C-2.11647504 37.53179526 -2.01963025 25.08635326 -1.5625 12.625 C-1.52326416 11.48434082 -1.48402832 10.34368164 -1.44360352 9.16845703 C-1.40162842 8.11513184 -1.35965332 7.06180664 -1.31640625 5.9765625 C-1.26141968 4.57011475 -1.26141968 4.57011475 -1.20532227 3.13525391 C-1 1 -1 1 0 0 Z " fill="#1D245E" transform="translate(358,212)"/>
<path d="M0 0 C0.66 0.33 1.32 0.66 2 1 C3.62961718 6.69103498 3.18601031 12.72452835 3.18530273 18.59033203 C3.18747087 20.59802335 3.2059294 22.60567566 3.22460938 24.61328125 C3.23496233 31.54975928 2.76814109 37.92586895 1.39306641 44.71679688 C0.85531755 47.84041632 0.93608941 50.00368037 2 53 C3.71345091 55.23999525 5.34698543 57.13772131 7.3125 59.125 C7.84069336 59.67760498 8.36888672 60.23020996 8.91308594 60.79956055 C10.59394244 62.5481775 12.29362999 64.27629176 14 66 C14.57476074 66.58313965 15.14952148 67.1662793 15.74169922 67.76708984 C19.13608688 71.20379914 22.55704163 74.61198245 26 78 C25.67 78.66 25.34 79.32 25 80 C23.515 79.01 23.515 79.01 22 78 C22 77.34 22 76.68 22 76 C20.68 75.34 19.36 74.68 18 74 C18 73.34 18 72.68 18 72 C16.68 71.34 15.36 70.68 14 70 C14 69.34 14 68.68 14 68 C13.43539063 67.77183594 12.87078125 67.54367187 12.2890625 67.30859375 C9.37809185 65.6444723 7.58436619 63.57851735 5.375 61.0625 C4.59898437 60.18722656 3.82296875 59.31195313 3.0234375 58.41015625 C-1.09191205 53.50828236 -1.44569125 50.21396451 -1 44 C-0.68253468 41.64364103 -0.34772106 39.28958458 0 36.9375 C1.74114774 24.60128302 1.18798253 12.38896072 0 0 Z " fill="#1D245E" transform="translate(357,263)"/>
<path d="M0 0 C7.01782184 4.32257143 13.01318392 9.35187235 19 15 C19.96099609 15.86431641 19.96099609 15.86431641 20.94140625 16.74609375 C30.07415406 25.26590546 35.98376393 36.42937169 37.30859375 48.90625 C37.41729088 53.25413537 37.17182596 56.16889901 35 60 C33.68 59.34 32.36 58.68 31 58 C32.485 57.505 32.485 57.505 34 57 C34.885088 43.7040114 32.25264252 34.16567102 23.68359375 23.8828125 C21.54011851 21.48570098 19.33043248 19.21675285 17 17 C16.41605469 16.39542969 15.83210937 15.79085938 15.23046875 15.16796875 C10.99519408 10.7990365 6.61246618 7.02256834 1.6875 3.4453125 C1.130625 2.96835937 0.57375 2.49140625 0 2 C0 1.34 0 0.68 0 0 Z " fill="#1D245E" transform="translate(210,352)"/>
<path d="M0 0 C3.90366788 3.32227054 7.78202627 6.67012621 11.625 10.0625 C12.33914063 10.69285156 13.05328125 11.32320313 13.7890625 11.97265625 C15.35754677 13.41089536 16.88398562 14.89559791 18.37890625 16.41015625 C20.25601171 18.26488192 22.09818362 19.96229128 24.11328125 21.6484375 C24.63857422 22.09703125 25.16386719 22.545625 25.70507812 23.0078125 C26.78426292 23.92570966 27.87576161 24.82930714 28.97851562 25.71875 C31.96976788 28.31983892 32.96339035 29.53780316 33.28125 33.55078125 C33.14203125 35.25814453 33.14203125 35.25814453 33 37 C33.4195437 39.54816068 33.4195437 39.54816068 34.1875 41.8125 C34.40792969 42.56144531 34.62835938 43.31039062 34.85546875 44.08203125 C36.11429941 46.63247863 36.11429941 46.63247863 41 48 C40.67 53.61 40.34 59.22 40 65 C39.67 65 39.34 65 39 65 C38.98582031 63.97519531 38.97164063 62.95039063 38.95703125 61.89453125 C38.91010984 60.53381029 38.86186256 59.17313459 38.8125 57.8125 C38.80669922 57.13896484 38.80089844 56.46542969 38.79492188 55.77148438 C38.62417806 51.88231959 38.18472598 50.20852321 35.57421875 47.26171875 C34.72472656 46.51535156 33.87523437 45.76898438 33 45 C30.88595651 41.80697882 30.93742412 39.58109076 31.0625 35.8125 C30.7826837 32.04497332 30.41525075 30.45587311 27.84375 27.6328125 C25.94435009 26.13356707 24.01105812 24.67653428 22.05078125 23.2578125 C18.97688175 20.98289072 16.41210944 18.55230542 13.75 15.8125 C10.94015702 12.92212012 8.13830934 10.21630298 5 7.6875 C2.26867065 5.43174329 0.92791759 3.50546646 0 0 Z " fill="#1D245E" transform="translate(311,358)"/>
<path d="M0 0 C0 3.69881674 -0.76644706 4.08632555 -3.1875 6.75 C-14.51487657 20.87482585 -14.28526617 41.07631645 -14.625 58.3125 C-14.66329313 59.93947142 -14.70235087 61.56642502 -14.7421875 63.19335938 C-14.83691647 67.12875714 -14.92138085 71.0642488 -15 75 C-15.33 75 -15.66 75 -16 75 C-18.87275754 52.17183743 -19.05657924 24.34127782 -5 5 C-3.41189375 3.16725075 -1.82256389 1.6081446 0 0 Z " fill="#1D245E" transform="translate(283,184)"/>
<path d="M0 0 C1.93711981 1.39592883 1.93711981 1.39592883 4.875 1.13671875 C5.12507813 1.70003906 5.37515625 2.26335937 5.6328125 2.84375 C7.06332584 5.48435166 8.80103967 7.5406256 10.75 9.82421875 C14.29619694 14.19075633 17.44288037 18.62249434 18.875 24.13671875 C18.545 25.12671875 18.215 26.11671875 17.875 27.13671875 C17.47410156 26.31429687 17.07320313 25.491875 16.66015625 24.64453125 C8.32093489 8.26864532 -3.21570089 -2.18523657 -20.91015625 -8.03125 C-24.90832867 -9.06601394 -28.02876584 -9.24971843 -32.125 -8.86328125 C-33.115 -8.86328125 -34.105 -8.86328125 -35.125 -8.86328125 C-26.17265473 -17.81562652 -7.80577181 -5.69649156 0 0 Z " fill="#1D245E" transform="translate(329.125,266.86328125)"/>
<path d="M0 0 C0 0.66 0 1.32 0 2 C-0.61875 2.28875 -1.2375 2.5775 -1.875 2.875 C-4.13325765 3.93720042 -4.13325765 3.93720042 -6 6 C-6.33 5.01 -6.66 4.02 -7 3 C-3.375 0 -3.375 0 0 0 Z M-9 5 C-9 5.99 -9 6.98 -9 8 C-9.99 8.66 -10.98 9.32 -12 10 C-12.33 9.34 -12.66 8.68 -13 8 C-11.68 7.01 -10.36 6.02 -9 5 Z M-15 9 C-14.34 9 -13.68 9 -13 9 C-14.39099567 12.29047014 -15.87044858 13.94865752 -18.75390625 16.03125 C-19.90028564 16.86789185 -19.90028564 16.86789185 -21.06982422 17.72143555 C-21.89240723 18.30836182 -22.71499023 18.89528809 -23.5625 19.5 C-24.40570801 20.11077393 -25.24891602 20.72154785 -26.11767578 21.35083008 C-28.73814165 23.24382406 -31.36773288 25.12345937 -34 27 C-34.81807129 27.58571777 -35.63614258 28.17143555 -36.47900391 28.77490234 C-50.64931252 38.91147576 -50.64931252 38.91147576 -56 42 C-54.65008634 38.84921991 -53.33725021 37.21336882 -50.53515625 35.2578125 C-49.82617188 34.75531982 -49.1171875 34.25282715 -48.38671875 33.73510742 C-47.61972656 33.20377197 -46.85273438 32.67243652 -46.0625 32.125 C-44.43794211 30.97908279 -42.81427534 29.83190142 -41.19140625 28.68359375 C-40.34465332 28.08659668 -39.49790039 27.48959961 -38.62548828 26.87451172 C-35.94319628 24.95944403 -33.2940905 23.0057226 -30.65234375 21.03515625 C-29.7905249 20.39239746 -28.92870605 19.74963867 -28.04077148 19.08740234 C-26.36486134 17.83421384 -24.69114188 16.57808962 -23.01977539 15.31884766 C-22.26043701 14.75343262 -21.50109863 14.18801758 -20.71875 13.60546875 C-20.04779297 13.10168701 -19.37683594 12.59790527 -18.68554688 12.07885742 C-17 11 -17 11 -15 11 C-15 10.34 -15 9.68 -15 9 Z " fill="#1D245E" transform="translate(217,106)"/>
<path d="M0 0 C0.495 1.485 0.495 1.485 1 3 C-13.3426659 17.57995266 -13.3426659 17.57995266 -18 21 C-18.66 21 -19.32 21 -20 21 C-20 21.66 -20 22.32 -20 23 C-21.6376272 24.45402342 -23.33734196 25.83848678 -25.0625 27.1875 C-29.68371312 30.87730583 -33.94706819 34.69808262 -38 39 C-38.66 38.67 -39.32 38.34 -40 38 C-24.68936427 22.49499096 -24.68936427 22.49499096 -18.90625 17.625 C-15.58133682 14.79064778 -12.40426451 11.78887921 -9.19921875 8.8203125 C-7 7 -7 7 -4 6 C-2.90833725 4.06669397 -2.90833725 4.06669397 -2 2 C-1.34 1.34 -0.68 0.68 0 0 Z M-41 39 C-40.01 39.495 -40.01 39.495 -39 40 C-39 40.99 -39 41.98 -39 43 C-39.66 43 -40.32 43 -41 43 C-41 41.68 -41 40.36 -41 39 Z " fill="#1D245E" transform="translate(348,312)"/>
<path d="M0 0 C12.48614909 5.68315754 21.27649321 19.57003846 28 31 C28.66 30.67 29.32 30.34 30 30 C30.33 32.64 30.66 35.28 31 38 C30.34 38 29.68 38 29 38 C27.40021068 35.5897314 25.9072451 33.17548895 24.4375 30.6875 C18.0666158 20.22401519 10.69387286 11.41235219 1.87109375 2.8984375 C0 1 0 1 0 0 Z " fill="#1D245E" transform="translate(199,304)"/>
<path d="M0 0 C4.6751094 1.45178998 7.72418167 4.18008065 11.1875 7.5 C11.75484863 8.03536377 12.32219727 8.57072754 12.90673828 9.12231445 C14.61296199 10.73960742 16.30766364 12.3681943 18 14 C18.93199219 14.89074219 19.86398437 15.78148437 20.82421875 16.69921875 C26.05049275 21.79743703 30.69686625 27.10100208 35 33 C34.505 33.99 34.505 33.99 34 35 C32.86800647 34.0919838 31.74467637 33.17316174 30.625 32.25 C29.99851562 31.73953125 29.37203125 31.2290625 28.7265625 30.703125 C27 29 27 29 26.10498047 27.12084961 C24.87381918 24.75781423 23.48127282 23.23798942 21.59375 21.36328125 C20.60181641 20.37424805 20.60181641 20.37424805 19.58984375 19.36523438 C18.90019531 18.68783203 18.21054687 18.01042969 17.5 17.3125 C16.46552734 16.27899414 16.46552734 16.27899414 15.41015625 15.22460938 C12.02035029 11.68830803 12.02035029 11.68830803 8 9 C8 8.34 8 7.68 8 7 C7.34 7 6.68 7 6 7 C6 6.34 6 5.68 6 5 C5.38125 4.731875 4.7625 4.46375 4.125 4.1875 C2 3 2 3 0 0 Z " fill="#1D245E" transform="translate(400,164)"/>
<path d="M0 0 C0.66 0 1.32 0 2 0 C2 0.66 2 1.32 2 2 C1.34 2 0.68 2 0 2 C0 1.34 0 0.68 0 0 Z M-1 2 C-0.34 2.33 0.32 2.66 1 3 C0.67 3.99 0.34 4.98 0 6 C-0.66 6 -1.32 6 -2 6 C-1.67 4.68 -1.34 3.36 -1 2 Z M-3 6 C-2.34 6.66 -1.68 7.32 -1 8 C-4.39286553 12.69871069 -7.83521212 16.94777395 -12 21 C-12.39316406 21.63164062 -12.78632813 22.26328125 -13.19140625 22.9140625 C-15.71250133 25.82176179 -18.79963533 27.09900701 -22.25 28.625 C-22.89324219 28.9240625 -23.53648437 29.223125 -24.19921875 29.53125 C-29.92753578 32.13607827 -35.60629529 34.38749726 -42 34 C-39.2692562 32.17950413 -37.01978088 31.32540752 -33.91064453 30.40356445 C-21.40549995 26.6575913 -10.17825613 19.53122769 -3.75 7.69921875 C-3.5025 7.13847656 -3.255 6.57773437 -3 6 Z " fill="#1D245E" transform="translate(419,413)"/>
<path d="M0 0 C0.66 0 1.32 0 2 0 C2.57952584 12.06272298 2.57952584 12.06272298 -1 17 C-6.68810404 21.13680294 -12.22230969 20.78933907 -19 20 C-27.45693525 17.8175651 -32.9802138 14.12314732 -38 7 C-35 7 -35 7 -32.6875 9.25 C-31.800625 10.1575 -30.91375 11.065 -30 12 C-23.12349549 17.3483924 -16.50800988 18.41842672 -8 18 C-5.15284501 17.56645435 -5.15284501 17.56645435 -3 17 C-0.74566386 11.43930418 -0.40038172 5.9214349 0 0 Z " fill="#1D245E" transform="translate(181,226)"/>
<path d="M0 0 C0.82242188 0.40992188 1.64484375 0.81984375 2.4921875 1.2421875 C14.9977859 7.27837703 26.41088404 10.19261097 40 6 C44.04959829 4.44171067 48.03356355 2.75838638 52 1 C52 1.66 52 2.32 52 3 C49.91870896 3.98350025 47.83488641 4.96164458 45.75 5.9375 C44.58984375 6.48277344 43.4296875 7.02804687 42.234375 7.58984375 C31.73015169 12.16958362 19.31549851 10.85648519 8.73046875 7.1484375 C5.38681478 5.74209377 2.75461613 4.36109954 0 2 C0 1.34 0 0.68 0 0 Z " fill="#1D245E" transform="translate(127,251)"/>
<path d="M0 0 C0 0.99 0 1.98 0 3 C-1.73046875 4.54296875 -1.73046875 4.54296875 -4.1875 6.1875 C-5.09628906 6.79722656 -6.00507813 7.40695312 -6.94140625 8.03515625 C-11.2368644 10.79456295 -15.56923693 13.48631314 -19.9375 16.12890625 C-22.54184098 17.72007886 -25.08274508 19.37545216 -27.625 21.0625 C-28.73875 21.701875 -29.8525 22.34125 -31 23 C-31.99 22.67 -32.98 22.34 -34 22 C-32.50879308 19.01758616 -30.22195372 18.48686318 -27.25 17.0625 C-20.13276417 13.76604841 -20.13276417 13.76604841 -14 9 C-12.01643517 8.28591666 -10.01684563 7.61382258 -8 7 C-8 6.34 -8 5.68 -8 5 C-6.20963542 3.99088542 -4.41927083 2.98177083 -2.62890625 1.97265625 C-1.02121854 1.1027487 -1.02121854 1.1027487 0 0 Z " fill="#1D245E" transform="translate(479,399)"/>
<path d="M0 0 C-1.39718243 3.24827183 -2.98573105 5.11379455 -5.6875 7.375 C-6.74904297 8.27605469 -6.74904297 8.27605469 -7.83203125 9.1953125 C-8.90517578 10.08863281 -8.90517578 10.08863281 -10 11 C-11.29405805 12.08047566 -12.58591236 13.16359909 -13.875 14.25 C-14.42929688 14.70890625 -14.98359375 15.1678125 -15.5546875 15.640625 C-17.96578237 17.90835747 -18.95515933 19.58746588 -19.3125 22.875 C-18.96554664 26.34453361 -17.99104201 28.17935715 -16 31 C-17.875 30.75 -17.875 30.75 -20 30 C-21.62859655 27.80139466 -22.01459309 25.928656 -22.5625 23.25 C-21.26300304 15.74179536 -13.53819701 10.51900255 -8.1875 5.5 C-7.32475464 4.68861572 -7.32475464 4.68861572 -6.44458008 3.86083984 C-2.24139669 0 -2.24139669 0 0 0 Z " fill="#1D245E" transform="translate(152,312)"/>
<path d="M0 0 C0.66 0.33 1.32 0.66 2 1 C1.01 1.66 0.02 2.32 -1 3 C-1.33 2.34 -1.66 1.68 -2 1 C-1.34 0.67 -0.68 0.34 0 0 Z M-3 2 C-3 2.99 -3 3.98 -3 5 C-3.66 4.34 -4.32 3.68 -5 3 C-4.34 2.67 -3.68 2.34 -3 2 Z M-6 4 C-6 4.99 -6 5.98 -6 7 C-6.66 6.34 -7.32 5.68 -8 5 C-7.34 4.67 -6.68 4.34 -6 4 Z M-8 6 C-9 9 -9 9 -12.0625 10.6875 C-13.031875 11.120625 -14.00125 11.55375 -15 12 C-15.33 11.34 -15.66 10.68 -16 10 C-10.25 6 -10.25 6 -8 6 Z M-16 11 C-17.27351308 14.82053924 -18.62637525 15.23021375 -22.0625 17.1875 C-22.98160156 17.71730469 -23.90070313 18.24710938 -24.84765625 18.79296875 C-25.55792969 19.19128906 -26.26820313 19.58960938 -27 20 C-27.66 19.34 -28.32 18.68 -29 18 C-27.21190303 16.82786955 -25.41940875 15.66244474 -23.625 14.5 C-22.62726563 13.8503125 -21.62953125 13.200625 -20.6015625 12.53125 C-18 11 -18 11 -16 11 Z M-30 19 C-30 19.99 -30 20.98 -30 22 C-30.66 22 -31.32 22 -32 22 C-32 21.34 -32 20.68 -32 20 C-31.34 19.67 -30.68 19.34 -30 19 Z " fill="#1D245E" transform="translate(241,207)"/>
<path d="M0 0 C0.66 0.33 1.32 0.66 2 1 C1.38511719 1.88751953 1.38511719 1.88751953 0.7578125 2.79296875 C-0.05042969 3.97826172 -0.05042969 3.97826172 -0.875 5.1875 C-1.40867187 5.96480469 -1.94234375 6.74210938 -2.4921875 7.54296875 C-3.98015439 9.9676609 -5.02428078 12.3333499 -6 15 C-6.66 15 -7.32 15 -8 15 C-9.39852116 23.88359605 -9.39852116 23.88359605 -6 32 C-8.6956681 31.01158836 -9.81623311 30.30627815 -11.3125 27.8125 C-12.70194843 22.12839279 -11.05466284 17.48013379 -8.21484375 12.60351562 C-7.85519531 12.01248047 -7.49554688 11.42144531 -7.125 10.8125 C-6.77308594 10.20986328 -6.42117188 9.60722656 -6.05859375 8.98632812 C-4.20607954 5.84944998 -2.2569084 2.86017008 0 0 Z " fill="#1D245E" transform="translate(298,236)"/>
<path d="M0 0 C0.66 0.33 1.32 0.66 2 1 C1.17757812 1.76441406 0.35515625 2.52882812 -0.4921875 3.31640625 C-8.71719059 11.14579819 -15.07409808 19.32860702 -21 29 C-22 26 -22 26 -21.09375 23.828125 C-15.39320887 14.6066614 -7.8205657 7.42840618 0 0 Z " fill="#1D245E" transform="translate(141,163)"/>
<path d="M0 0 C0.66 0.33 1.32 0.66 2 1 C-1.15950584 4.44673364 -3.97193629 6.55851769 -8.08959961 8.84472656 C-12.05758769 11.24428178 -15.53915361 14.33151343 -19.1015625 17.28515625 C-23.68754212 21 -23.68754212 21 -27 21 C-22.10128588 16.54247442 -17.00881301 12.35267514 -11.8125 8.25 C-11.21872559 7.77844482 -10.62495117 7.30688965 -10.01318359 6.82104492 C-6.80936748 4.30760587 -3.64947658 1.84094378 0 0 Z " fill="#1D245E" transform="translate(167,427)"/>
<path d="M0 0 C0.33 0.99 0.66 1.98 1 3 C-3.43396047 9.79576856 -9.41821148 15.62373428 -15.25 21.22265625 C-17.07555954 22.89373212 -17.07555954 22.89373212 -18 25 C-18.66 25 -19.32 25 -20 25 C-18.55746343 21.63408134 -16.66735273 19.48952921 -14 17 C-14.33 16.34 -14.66 15.68 -15 15 C-13.63875 14.443125 -13.63875 14.443125 -12.25 13.875 C-8.46109687 11.68909435 -7.25176352 9.70451418 -5 6 C-3.38649831 3.9494114 -1.69867357 1.98178583 0 0 Z " fill="#1D245E" transform="translate(282,393)"/>
<path d="M0 0 C8.80173149 5.58018271 15.15129635 12.19961545 22 20 C21.67 20.66 21.34 21.32 21 22 C20.29875 21.113125 19.5975 20.22625 18.875 19.3125 C16.97537344 17.01008729 15.02220469 15.10778164 12.6875 13.25 C11.800625 12.5075 10.91375 11.765 10 11 C10 10.34 10 9.68 10 9 C9.484375 8.773125 8.96875 8.54625 8.4375 8.3125 C5.07596873 6.5024447 2.07088856 4.26003596 -1 2 C-0.67 1.34 -0.34 0.68 0 0 Z " fill="#1D245E" transform="translate(325,219)"/>
<path d="M0 0 C0.33 0.66 0.66 1.32 1 2 C0.12085938 1.9175 -0.75828125 1.835 -1.6640625 1.75 C-5.80842072 2.06058422 -7.26576312 3.31093026 -10.375 6 C-11.24898437 6.7425 -12.12296875 7.485 -13.0234375 8.25 C-13.67570313 8.8275 -14.32796875 9.405 -15 10 C-15.66 9.34 -16.32 8.68 -17 8 C-6.81093394 -1.18451025 -6.81093394 -1.18451025 0 0 Z M-19 10 C-19 13 -19 13 -20.3125 14.38671875 C-21.875 15.59114583 -23.4375 16.79557292 -25 18 C-23.55746343 14.63408134 -21.66735273 12.48952921 -19 10 Z " fill="#1D245E" transform="translate(180,292)"/>
<path d="M0 0 C0.66 0 1.32 0 2 0 C1.67 0.66 1.34 1.32 1 2 C0.67 1.34 0.34 0.68 0 0 Z M-3 1 C-2.01 1 -1.02 1 0 1 C0 1.66 0 2.32 0 3 C-0.99 2.67 -1.98 2.34 -3 2 C-3 1.67 -3 1.34 -3 1 Z M-5 2 C-4.34 2 -3.68 2 -3 2 C-3.33 2.66 -3.66 3.32 -4 4 C-4.33 3.34 -4.66 2.68 -5 2 Z M-6 3 C-6 6 -6 6 -8.3359375 8.48046875 C-9.34126274 9.39137852 -10.35466684 10.29343306 -11.375 11.1875 C-11.88289062 11.65091797 -12.39078125 12.11433594 -12.9140625 12.59179688 C-16.72884067 16 -16.72884067 16 -19 16 C-17.44533803 11.91667098 -14.74912156 9.91791007 -11.375 7.25 C-10.37210938 6.45078125 -9.36921875 5.6515625 -8.3359375 4.828125 C-7.17964844 3.92320312 -7.17964844 3.92320312 -6 3 Z " fill="#1D245E" transform="translate(189,410)"/>
<path d="M0 0 C0.66 0.33 1.32 0.66 2 1 C1.22914063 1.75925781 0.45828125 2.51851563 -0.3359375 3.30078125 C-1.34909096 4.30455366 -2.36210448 5.30846732 -3.375 6.3125 C-3.88289062 6.81201172 -4.39078125 7.31152344 -4.9140625 7.82617188 C-7.22854133 10.12542387 -9.18347483 12.27521225 -11 15 C-11.66 15 -12.32 15 -13 15 C-10.28341041 8.57897007 -5.33989457 4.22224222 0 0 Z M-14 15 C-13.34 15.66 -12.68 16.32 -12 17 C-12.66 17 -13.32 17 -14 17 C-14 16.34 -14 15.68 -14 15 Z " fill="#1D245E" transform="translate(138,449)"/>
<path d="M0 0 C0 0.99 0 1.98 0 3 C-2.08503535 4.58236634 -4.07627728 5.91919795 -6.3125 7.25 C-7.20485352 7.81460937 -7.20485352 7.81460937 -8.11523438 8.390625 C-9.69270568 9.34944555 -11.34436749 10.18352369 -13 11 C-13.99 10.67 -14.98 10.34 -16 10 C-5.62642369 2.51708428 -5.62642369 2.51708428 0 0 Z " fill="#1D245E" transform="translate(443,422)"/>
<path d="M0 0 C-1.01320312 0.36351562 -1.01320312 0.36351562 -2.046875 0.734375 C-8.78469251 3.19836927 -8.78469251 3.19836927 -14 8 C-14.66 7.67 -15.32 7.34 -16 7 C-14.37660195 5.29115995 -12.70680947 3.62553283 -11 2 C-10.34 2 -9.68 2 -9 2 C-8.67 1.34 -8.34 0.68 -8 0 C-4.95647475 -1.15444061 -3.07394306 -0.85709523 0 0 Z " fill="#1D245E" transform="translate(153,455)"/>
<path d="M0 0 C3.41021743 0.78697325 6.68885166 1.87119943 10 3 C10 3.66 10 4.32 10 5 C7.25 5.3125 7.25 5.3125 4 5 C1.625 2.5 1.625 2.5 0 0 Z " fill="#1D245E" transform="translate(218,108)"/>
<path d="M0 0 C-1 3 -1 3 -3.375 4.75 C-6 6 -6 6 -9 5 C-7.87926138 4.16094435 -6.75325453 3.32892169 -5.625 2.5 C-4.99851562 2.0359375 -4.37203125 1.571875 -3.7265625 1.09375 C-2 0 -2 0 0 0 Z " fill="#1D245E" transform="translate(415,440)"/>
</svg>
